<svg width="15" opacity=".5" fill="#6783ad" viewBox="-10.24 -10.24 532.48 532.48" id="_19_CMD" data-name="19 CMD" xmlns="http://www.w3.org/2000/svg"><g id="SVGRepo_bgCarrier" stroke-width="0"></g><g id="SVGRepo_tracerCarrier" stroke-linecap="round" stroke-linejoin="round"></g><g id="SVGRepo_iconCarrier"> <path id="Path_26" data-name="Path 26" d="M400,288a110.931,110.931,0,0,0-48,11.188V212.813A111.767,111.767,0,1,0,288,112v48H224V112a113.05,113.05,0,1,0-64,100.812v86.375A111.767,111.767,0,1,0,224,400V352h64v48A112,112,0,1,0,400,288Zm0-224a48,48,0,1,1-48,48A48,48,0,0,1,400,64ZM112,448a48,48,0,1,1,48-48A48,48,0,0,1,112,448Zm0-288a48,48,0,1,1,48-48A48,48,0,0,1,112,160ZM288,288H224V224h64ZM400,448a48,48,0,1,1,48-48A48,48,0,0,1,400,448Z" fill-rule="evenodd"></path> </g></svg>